Coordinates
version=1
nRows=20
nColumns=34
inDegrees=yes

Units are S.I. units (second, meters, Newtons, ...)
Angles are in degrees.

endheader
time	pelvis_tilt	pelvis_list	pelvis_rotation	pelvis_tx	pelvis_ty	pelvis_tz	hip_flexion_r	hip_adduction_r	hip_rotation_r	knee_angle_r	ankle_angle_r	subtalar_angle_r	mtp_angle_r	hip_flexion_l	hip_adduction_l	hip_rotation_l	knee_angle_l	socket_flexion	socket_adduction	socket_rotation	socket_tx	socket_ty	socket_tz	pros_ankle_rx	pros_ankle_ry	pros_ankle_rz	pros_ankle_tx	pros_ankle_ty	pros_ankle_tz	foot_flex	lumbar_extension	lumbar_bending	lumbar_rotation
      0.59583333	      1.28530217	     -5.64256335	      7.86574911	      0.02857750	      1.02196602	      0.36920800	     17.42619003	      4.82245432	    -11.96394951	      4.65569898	     13.14888590	      8.11578232	      3.59124388	    -16.52001122	     -8.80524136	    -12.00138254	    -10.38772927	      4.28201092	      0.06204673	     14.60356068	      0.02610772	     -0.00458517	     -0.00521312	      0.00000000	      0.00000000	      0.00000000	      0.00000000	      0.00000000	      0.00000000	     14.24447380	    -20.79739533	      0.06414291	     -5.59452786
      0.60000000	      1.28834918	     -5.73833844	      8.05677133	      0.03442131	      1.02073889	      0.36921087	     17.66025752	      4.86959901	    -11.82374110	      4.22594900	     12.58831530	      8.01385685	      3.78111424	    -16.62313820	     -9.05128900	    -11.97481779	    -10.58835789	      4.46233661	      0.07745679	     14.65771086	      0.02680151	     -0.00453590	     -0.00531746	      0.00000000	      0.00000000	      0.00000000	      0.00000000	      0.00000000	      0.00000000	     14.38269780	    -20.83714577	      0.37180384	     -5.72633389
      0.60416667	      1.30057092	     -5.77203581	      8.29479905	      0.04067697	      1.01972127	      0.36909306	     17.72520707	      4.85978080	    -11.62065354	      3.96621944	     12.41527482	      8.03634435	      3.81470873	    -16.80552012	     -9.17816278	    -11.90042518	    -10.73503408	      4.62364292	      0.00839668	     14.72792413	      0.02707407	     -0.00429698	     -0.00471889	      0.00000000	      0.00000000	      0.00000000	      0.00000000	      0.00000000	      0.00000000	     14.41774967	    -20.77191064	      0.44325604	     -5.73766212
      0.60833333	      1.32860993	     -5.86109431	      8.40194781	      0.04657656	      1.01866903	      0.36928235	     18.00846290	      4.91970422	    -11.49365385	      3.29393156	     11.71341486	      7.92772614	      3.97957455	    -16.93913940	     -9.40383111	    -11.90334570	    -10.95879203	      4.82642115	      0.04179991	     14.75617847	      0.02764682	     -0.00416213	     -0.00481328	      0.00000000	      0.00000000	      0.00000000	      0.00000000	      0.00000000	      0.00000000	     14.51876931	    -20.85239648	      0.81257631	     -5.81838297
      0.61250000	      1.33409972	     -5.99981428	      8.56089152	      0.05263432	      1.01758075	      0.36934987	     18.26011864	      5.01427999	    -11.37057931	      2.68327144	     11.09730819	      7.78881375	      4.22309703	    -17.03361197	     -9.68442718	    -11.89250070	    -11.18395199	      5.03549171	      0.05175974	     14.79267446	      0.02826376	     -0.00410829	     -0.00482401	      0.00000000	      0.00000000	      0.00000000	      0.00000000	      0.00000000	      0.00000000	     14.54935972	    -20.87253606	      1.09992217	     -5.86349971
      0.61666667	      1.38441948	     -6.10205942	      8.78229900	      0.05895509	      1.01677675	      0.36922796	     18.30538190	      5.08552513	    -11.13937151	      2.25464806	     10.82571529	      7.79653422	      4.28235280	    -17.20132778	     -9.84560888	    -11.79657114	    -11.37496672	      5.25456108	     -0.06824109	     14.83795907	      0.02869013	     -0.00389859	     -0.00385395	      0.00000000	      0.00000000	      0.00000000	      0.00000000	      0.00000000	      0.00000000	     14.54410749	    -20.79161769	      1.18247446	     -5.86770962
      0.62083333	      1.02610980	     -6.61778873	      8.92162032	      0.06497342	      1.01475384	      0.36962284	     19.09043028	      5.51967299	    -11.13226747	      1.49937911	      9.41144287	      6.84920650	      6.83946473	    -16.57295543	    -10.78312983	    -11.93245759	    -11.86532149	      5.56661118	      0.22870959	     15.00904338	      0.03119761	     -0.00432901	     -0.00672797	      0.00000000	      0.00000000	      0.00000000	      0.00000000	      0.00000000	      0.00000000	     14.53671005	    -20.35670177	      2.00732423	     -5.79339586
      0.62500000	      1.16951009	     -6.63573811	      8.99344766	      0.07096072	      1.01425123	      0.36979734	     19.23271864	      5.52858082	    -10.94078014	      0.65976129	      8.80473395	      6.82959665	      6.96408676	    -16.77763233	    -10.83366153	    -11.91886799	    -12.14280856	      5.85955157	      0.14109385	     14.94649434	      0.03181831	     -0.00390817	     -0.00582459	      0.00000000	      0.00000000	      0.00000000	      0.00000000	      0.00000000	      0.00000000	     14.51957188	    -20.44485383	      2.19901992	     -5.81679332
      0.62916667	      1.25263921	     -6.76551111	      9.02855674	      0.07698601	      1.01357750	      0.37003080	     19.52211968	      5.64267705	    -10.83628508	     -0.31802976	      8.09874342	      6.70674771	      7.16444557	    -16.92484089	    -10.96804295	    -11.93182861	    -12.41801718	      6.15364021	      0.03607975	     14.86316652	      0.03240322	     -0.00381069	     -0.00480175	      0.00000000	      0.00000000	      0.00000000	      0.00000000	      0.00000000	      0.00000000	     14.45832881	    -20.66993742	      2.42912899	     -5.78122574
      0.63333333	      1.33805229	     -6.92186673	      9.06408137	      0.08301968	      1.01297731	      0.37031687	     19.81244649	      5.78483163	    -10.74710624	     -1.33158143	      7.43136868	      6.53293968	      7.42536461	    -17.01373051	    -11.18055514	    -11.95284625	    -12.74274810	      6.48235487	     -0.02809251	     14.77328359	      0.03318589	     -0.00365456	     -0.00426357	      0.00000000	      0.00000000	      0.00000000	      0.00000000	      0.00000000	      0.00000000	     14.36889253	    -20.82841076	      2.70551262	     -5.67787308
      0.63750000	      1.39630844	     -7.12218708	      9.07666831	      0.08903975	      1.01233218	      0.37064585	     20.16151878	      5.96821676	    -10.68014276	     -2.41099724	      6.76086633	      6.31027209	      7.74984889	    -17.03672912	    -11.44234886	    -11.98309918	    -13.09840708	      6.83359329	     -0.07329739	     14.67524354	      0.03412988	     -0.00358658	     -0.00383375	      0.00000000	      0.00000000	      0.00000000	      0.00000000	      0.00000000	      0.00000000	     14.24745325	    -20.97314302	      3.01955825	     -5.52120976
      0.64166667	      1.42294561	     -7.35035166	      9.08360141	      0.09504727	      1.01165681	      0.37108834	     20.56284806	      6.17700030	    -10.64720014	     -3.53283684	      6.13824083	      6.00957479	      8.25853698	    -16.94838721	    -11.79495304	    -12.04533402	    -13.52611951	      7.23562607	     -0.07460955	     14.57361656	      0.03539940	     -0.00350244	     -0.00403598	      0.00000000	      0.00000000	      0.00000000	      0.00000000	      0.00000000	      0.00000000	     14.09224169	    -21.01424903	      3.33281978	     -5.27904292
      0.64583333	      1.03202528	     -7.64929464	      9.06278319	      0.10125549	      1.01035497	      0.37158430	     21.36610241	      6.38867901	    -10.57102364	     -4.54653360	      5.14543771	      5.36171936	     12.22664970	    -16.04787231	    -12.14938582	    -12.30409181	    -14.23696221	      7.75750210	     -0.21106693	     14.79960071	      0.03935618	     -0.00278959	     -0.00369323	      0.00000000	      0.00000000	      0.00000000	      0.00000000	      0.00000000	      0.00000000	     13.89829524	    -20.40598269	      3.67119051	     -5.08416967
      0.65000000	      1.21385679	     -7.83179492	      9.02319530	      0.10736681	      1.01021780	      0.37196441	     21.52335070	      6.59383760	    -10.50671693	     -5.59833106	      4.61835887	      5.27334738	     12.26122727	    -16.19286743	    -12.31108223	    -12.32119247	    -14.63055708	      8.17166990	     -0.32286687	     14.57187375	      0.04001542	     -0.00265107	     -0.00251679	      0.00000000	      0.00000000	      0.00000000	      0.00000000	      0.00000000	      0.00000000	     13.63998151	    -20.63844091	      3.99789592	     -4.97187249
      0.65416667	      1.36758030	     -8.03545865	      8.96763150	      0.11348101	      1.01005486	      0.37243203	     21.73969995	      6.80863657	    -10.49858475	     -6.72377784	      4.15908075	      5.12044334	     12.31324416	    -16.24903479	    -12.54356744	    -12.34466464	    -15.06577824	      8.61488339	     -0.40858139	     14.33860520	      0.04097783	     -0.00245953	     -0.00192629	      0.00000000	      0.00000000	      0.00000000	      0.00000000	      0.00000000	      0.00000000	     13.35762247	    -20.87647520	      4.31786555	     -4.77823559
      0.65833333	      1.48953247	     -8.27459098	      8.89204951	      0.11955325	      1.00982912	      0.37297666	     22.01048116	      7.05636445	    -10.53524715	     -7.89442196	      3.79201052	      4.92753307	     12.39760344	    -16.19973075	    -12.83231336	    -12.36289493	    -15.55932174	      9.09850237	     -0.46068118	     14.11416520	      0.04233568	     -0.00230438	     -0.00161570	      0.00000000	      0.00000000	      0.00000000	      0.00000000	      0.00000000	      0.00000000	     13.04515823	    -21.08607406	      4.63906284	     -4.48399382
      0.66250000	      1.58273390	     -8.51370209	      8.81340015	      0.12569892	      1.00964985	      0.37354485	     22.26138837	      7.30543348	    -10.55565283	     -8.99614712	      3.49895128	      4.76311486	     12.48607333	    -16.07275856	    -13.11866087	    -12.39637107	    -16.09005822	      9.61691776	     -0.51938827	     13.86749118	      0.04386625	     -0.00204284	     -0.00125364	      0.00000000	      0.00000000	      0.00000000	      0.00000000	      0.00000000	      0.00000000	     12.67705964	    -21.20898859	      4.96160217	     -4.17663532
      0.66666667	      1.66749126	     -8.75499181	      8.72059609	      0.13191591	      1.00958431	      0.37410109	     22.47099743	      7.56483872	    -10.54639527	    -10.02800417	      3.22420941	      4.63399222	     12.54557988	    -15.92750552	    -13.36311874	    -12.41685837	    -16.63086528	     10.15891467	     -0.62206536	     13.59856241	      0.04531590	     -0.00175237	     -0.00052885	      0.00000000	      0.00000000	      0.00000000	      0.00000000	      0.00000000	      0.00000000	     12.24711662	    -21.32311163	      5.27953230	     -3.92078187
      0.67083333	      1.74212250	     -8.98704665	      8.60750927	      0.13812954	      1.00954206	      0.37473792	     22.67013475	      7.81550206	    -10.57706806	    -11.03531776	      3.01729957	      4.49107956	     12.59709717	    -15.69937050	    -13.62477591	    -12.44017220	    -17.22708699	     10.74191635	     -0.70021666	     13.32164048	      0.04717142	     -0.00126590	     -0.00010209	      0.00000000	      0.00000000	      0.00000000	      0.00000000	      0.00000000	      0.00000000	     11.79528126	    -21.41438067	      5.57945529	     -3.62263634
      0.67500000	      1.84092218	     -9.21355455	      8.48946340	      0.14444639	      1.00965857	      0.37532836	     22.77126201	      8.07977362	    -10.54838247	    -11.93393823	      2.80179913	      4.40915271	     12.61575747	    -15.52985405	    -13.81731987	    -12.45677794	    -17.79979695	     11.32593055	     -0.83090234	     12.98568206	      0.04867384	     -0.00091266	      0.00092631	      0.00000000	      0.00000000	      0.00000000	      0.00000000	      0.00000000	      0.00000000	     11.23523736	    -21.52086825	      5.88025060	     -3.41396821
